<svg xmlns="http://www.w3.org/2000/svg" viewBox="0 0 24 24" width="24" height="24">
  <path d="M12 6.5c-2.33 0-4.34 1.24-5.6 3.07l1.1 1.1C8.55 9.72 10.2 9 12 9c1.1 0 2.12.27 3 .74l1.1-1.1C16.34 7.74 14.33 6.5 12 6.5zM4.27 3L3 4.27l3.09 3.09C5.01 8.1 3.59 9.95 2.66 12c1.73 4 6 7.5 11 7.5 1.92 0 3.72-.52 5.28-1.41l3.73 3.73L21 20.73l-1.86-1.86C17.35 19.69 14.78 21 12 21c-5 0-9.27-3.5-11-7.5 1.11-2.57 3.11-4.8 5.42-6.12L4.27 3zM12 14.5c-1.1 0-2.12-.27-3-.74l1.46-1.46c.56.22 1.19.35 1.84.35 1.66 0 3-1.34 3-3 0-.65-.13-1.28-.35-1.84l1.46-1.46c.47.88.74 1.9.74 3 0 2.76-2.24 5-5 5z"/>
</svg>
